<svg width="32" height="32" viewBox="0 0 32 32" fill="none" xmlns="http://www.w3.org/2000/svg">
<path d="M27.1608 16.9389C24.609 10.5716 15.5231 10.2283 17.7174 0.97389C17.8799 0.287224 17.116 -0.243381 16.4983 0.115558C10.5982 3.45525 6.356 10.1502 9.91558 18.9208C10.2081 19.6387 9.33044 20.3098 8.69654 19.8416C5.75462 17.7036 5.4458 14.6292 5.70586 12.4287C5.80338 11.6172 4.69812 11.2271 4.22676 11.8981C3.12151 13.5211 2 16.143 2 20.0913C2.61764 28.8307 10.3057 31.5149 13.0688 31.8583C17.0185 32.342 21.2932 31.6398 24.3652 28.9399C27.7459 25.928 28.9812 21.1213 27.1608 16.9389ZM12.0773 24.7887C14.4179 24.2425 15.6206 22.6195 15.9457 21.1837C16.4821 18.9521 14.3854 16.7672 15.7994 13.2402C16.3358 16.1586 21.1144 17.9845 21.1144 21.1681C21.2444 25.1164 16.7909 28.5029 12.0773 24.7887Z" fill="black"/>
</svg>
