<svg width="27" height="28" viewBox="0 0 27 28" fill="none" xmlns="http://www.w3.org/2000/svg">
<path d="M24.2576 14.8215C22.0002 9.25016 13.9628 8.94974 15.9038 0.852153C16.0476 0.251321 15.3718 -0.212959 14.8255 0.101113C9.60613 3.02334 5.85339 8.88146 9.00224 16.5557C9.26105 17.1839 8.48462 17.7711 7.92387 17.3614C5.32139 15.4906 5.0482 12.8005 5.27826 10.8751C5.36453 10.1651 4.3868 9.82368 3.96983 10.4109C2.9921 11.831 2 14.1251 2 17.5799C2.54638 25.2268 9.34732 27.5756 11.7916 27.876C15.2856 28.2993 19.0671 27.6848 21.7846 25.3224C24.7753 22.687 25.868 18.4811 24.2576 14.8215ZM10.9146 21.6901C12.985 21.2122 14.049 19.792 14.3366 18.5358C14.8111 16.583 12.9563 14.6713 14.2072 11.5852C14.6817 14.1387 18.9089 15.7364 18.9089 18.5221C19.0239 21.9769 15.0843 24.9401 10.9146 21.6901Z" fill="black"/>
</svg>
